<?xml version="1.0" encoding="utf-8"?>
<!-- Generator: Adobe Illustrator 19.1.0, SVG Export Plug-In . SVG Version: 6.00 Build 0)  -->
<svg version="1.1" id="Layer_2" xmlns="http://www.w3.org/2000/svg" xmlns:xlink="http://www.w3.org/1999/xlink" x="0px" y="0px"
	 viewBox="0 0 360 360" style="enable-background:new 0 0 360 360;" xml:space="preserve">
<style type="text/css">
	.st0{opacity:0.75;}
	.st1{fill:#A26745;}
	.st2{fill:#FFFFFF;}
</style>
<g id="XMLID_480_">
	<g class="st0">
		<path id="XMLID_164_" class="st1" d="M42.9,89.8v128.9c5.3-1.3,10.8-2.5,16.1-3.6c0-15.7,0-31.3,0-47c5.3-0.7,10.8-1.4,16.1-2
			c0,15.3,0,30.5,0,45.8c5.3-1,10.8-1.9,16.1-2.7V89.8C75.1,89.8,42.9,89.8,42.9,89.8z M75.1,150.1c-5.4,0.5-10.8,1-16.1,1.6
			c0-15.7,0-45.7,0-45.7h16.1C75.1,106,75.1,134.8,75.1,150.1z"/>
		<path id="XMLID_161_" class="st1" d="M300.7,89.8c-5.4,0-10.7,0-16.1,0c-5.4,0-10.7,0-16.1,0c0.1,39.8-0.1,79.6,0,119.4
			c5.4,0.8,10.8,1.7,16.1,2.7v-45.8l16.1,2v47c5.3,1.1,10.8,2.4,16.1,3.6c0-43,0-85.9,0-128.9C311.4,89.8,306,89.8,300.7,89.8z
			 M300.7,151.7c-5.3-0.6-10.8-1.1-16.1-1.6c0-15.3,0-44.1,0-44.1h16.1C300.7,106,300.6,136,300.7,151.7z"/>
		<path id="XMLID_160_" class="st1" d="M123.4,89.8c-5.4,0-16.1,0-16.1,0V207c26.9-3.4,53.6-4.8,80.6-4.4c0-4.7,0-11.4,0-16.1
			c-21.6-0.3-42.9,0.5-64.5,2.3V89.8z"/>
		<path id="XMLID_157_" class="st1" d="M139.5,89.8v85.6c16.2-0.8,32.2-1.2,48.4-1c0-28.2,0-56.4,0-84.6
			C171.8,89.8,155.6,89.8,139.5,89.8z M171.8,158.3c-5.4,0-10.7,0.1-16.1,0.3V106h16.1V158.3z"/>
		<path id="XMLID_156_" class="st1" d="M236.2,145.7c-5.4-0.3-10.7-0.5-16.1-0.7V89.8l-16.1,0c0,0-0.1,75.4,0,113.2
			c5.4,0.2,10.7,0.5,16.1,0.9v-42.8c5.4,0.2,10.7,0.5,16.1,0.8v43.3c5.4,0.5,10.7,1.1,16.1,1.8V89.8l-16.1,0V145.7z"/>
	</g>
	<g>
		<g>
			<path id="XMLID_131_" class="st2" d="M44.2,91.2v128.9c5.3-1.3,10.8-2.5,16.1-3.6c0-15.7,0-31.3,0-47c5.3-0.7,10.8-1.4,16.1-2
				c0,15.3,0,30.5,0,45.8c5.3-1,10.8-1.9,16.1-2.7V91.2C76.5,91.2,44.2,91.2,44.2,91.2z M76.5,151.4c-5.4,0.5-10.8,1-16.1,1.6
				c0-15.7,0-45.7,0-45.7h16.1C76.5,107.3,76.5,136.2,76.5,151.4z"/>
			<path id="XMLID_128_" class="st2" d="M302,91.2c-5.4,0-10.7,0-16.1,0c-5.4,0-10.7,0-16.1,0c0.1,39.8-0.1,79.6,0,119.4
				c5.4,0.8,10.8,1.7,16.1,2.7v-45.8l16.1,2v47c5.3,1.1,10.8,2.4,16.1,3.6c0-43,0-85.9,0-128.9C312.8,91.2,307.4,91.2,302,91.2z
				 M302,153c-5.3-0.6-10.8-1.1-16.1-1.6c0-15.3,0-44.1,0-44.1H302C302,107.3,302,137.4,302,153z"/>
			<path id="XMLID_127_" class="st2" d="M124.8,91.2c-5.4,0-16.1,0-16.1,0v117.2c26.9-3.4,53.6-4.8,80.6-4.4c0-4.7,0-11.4,0-16.1
				c-21.6-0.3-42.9,0.5-64.5,2.3V91.2z"/>
			<path id="XMLID_124_" class="st2" d="M140.9,91.2v85.6c16.2-0.8,32.2-1.2,48.4-1c0-28.2,0-56.4,0-84.6
				C173.1,91.2,157,91.2,140.9,91.2z M173.1,159.7c-5.4,0-10.7,0.1-16.1,0.3v-52.6h16.1V159.7z"/>
			<path id="XMLID_123_" class="st2" d="M237.6,147.1c-5.4-0.3-10.7-0.5-16.1-0.7V91.2l-16.1,0c0,0-0.1,75.4,0,113.2
				c5.4,0.2,10.7,0.5,16.1,0.9v-42.8c5.4,0.2,10.7,0.5,16.1,0.8v43.3c5.4,0.5,10.7,1.1,16.1,1.8V91.2l-16.1,0V147.1z"/>
		</g>
	</g>
</g>
<g id="XMLID_250_">
	<path id="XMLID_467_" class="st2" d="M44.9,262.7v-21h4.7v16.9h10.2v4.2H44.9z"/>
	<path id="XMLID_464_" class="st2" d="M75.5,262.7l-1.6-4.3h-7l-1.6,4.3h-4.9l8.2-21h3.7l8.2,21H75.5z M71.7,252l-1.2-4.2h-0.1
		l-1.2,4.1l-0.8,2.5h4.1L71.7,252z"/>
	<path id="XMLID_393_" class="st2" d="M95.7,262.7l-5.3-7.7l-3.1-5l-0.1,0v12.7h-4.7v-21h4.1l4.4,6.4l4.1,6.3l0.1,0v-12.7h4.7v21
		H95.7z"/>
	<path id="XMLID_379_" class="st2" d="M111.5,241.5c2,0,3.7,0.5,5,1.5c1.3,1,2.3,2.3,2.8,3.9l-4.4,1.6c-0.2-0.7-0.5-1.3-1.1-1.8
		c-0.6-0.5-1.4-0.7-2.3-0.7c-0.6,0-1.1,0.1-1.5,0.3s-0.8,0.4-1.1,0.8c-0.3,0.3-0.5,0.7-0.6,1.1c-0.1,0.4-0.2,0.8-0.2,1.3v5.7
		c0,0.5,0.1,0.9,0.2,1.3c0.1,0.4,0.4,0.8,0.6,1.1c0.3,0.3,0.6,0.6,1.1,0.8s0.9,0.3,1.5,0.3c0.5,0,1-0.1,1.4-0.3
		c0.4-0.2,0.8-0.4,1.2-0.8s0.6-0.7,0.8-1.1s0.3-0.9,0.3-1.3v-0.1h-4.3V251h8.9v4.2c0,1.1-0.2,2.1-0.6,3.1c-0.4,0.9-1,1.7-1.8,2.4
		c-0.7,0.7-1.6,1.2-2.6,1.6s-2.1,0.6-3.2,0.6c-1.4,0-2.6-0.2-3.6-0.6c-1-0.4-1.9-1-2.5-1.7c-0.7-0.7-1.2-1.6-1.5-2.6
		c-0.3-1-0.5-2.1-0.5-3.3v-5c0-1.1,0.2-2.1,0.5-3.1c0.3-1,0.8-1.9,1.5-2.6c0.7-0.8,1.5-1.4,2.5-1.8
		C108.9,241.7,110.1,241.5,111.5,241.5z"/>
	<path id="XMLID_366_" class="st2" d="M138.6,258.4c-0.4,0.9-1,1.7-1.8,2.4c-0.7,0.7-1.6,1.2-2.6,1.5c-1,0.4-2.1,0.5-3.2,0.5
		c-1.1,0-2.2-0.2-3.2-0.6c-1-0.4-1.9-0.9-2.6-1.6c-0.7-0.7-1.3-1.5-1.8-2.4s-0.6-2-0.6-3.2v-13.4h4.7v13.1c0,1.2,0.3,2.1,1,2.8
		c0.7,0.7,1.5,1,2.5,1c1,0,1.9-0.3,2.5-0.9c0.7-0.6,1-1.5,1-2.6v-13.3h4.7v13.7C139.2,256.4,139,257.5,138.6,258.4z"/>
	<path id="XMLID_363_" class="st2" d="M156,262.7l-1.6-4.3h-7l-1.6,4.3h-4.9l8.2-21h3.7l8.2,21H156z M152.2,252l-1.2-4.2h-0.1
		l-1.2,4.1l-0.8,2.5h4.1L152.2,252z"/>
	<path id="XMLID_361_" class="st2" d="M170.5,241.5c2,0,3.7,0.5,5,1.5c1.3,1,2.3,2.3,2.8,3.9l-4.4,1.6c-0.2-0.7-0.5-1.3-1.1-1.8
		c-0.6-0.5-1.4-0.7-2.3-0.7c-0.6,0-1.1,0.1-1.5,0.3c-0.4,0.2-0.8,0.4-1.1,0.8c-0.3,0.3-0.5,0.7-0.6,1.1c-0.1,0.4-0.2,0.8-0.2,1.3
		v5.7c0,0.5,0.1,0.9,0.2,1.3c0.1,0.4,0.4,0.8,0.6,1.1c0.3,0.3,0.6,0.6,1.1,0.8c0.4,0.2,0.9,0.3,1.5,0.3c0.5,0,1-0.1,1.4-0.3
		c0.4-0.2,0.8-0.4,1.2-0.8c0.3-0.3,0.6-0.7,0.8-1.1s0.3-0.9,0.3-1.3v-0.1h-4.3V251h8.9v4.2c0,1.1-0.2,2.1-0.6,3.1
		c-0.4,0.9-1,1.7-1.8,2.4c-0.7,0.7-1.6,1.2-2.6,1.6s-2.1,0.6-3.2,0.6c-1.4,0-2.6-0.2-3.6-0.6s-1.9-1-2.5-1.7
		c-0.7-0.7-1.2-1.6-1.5-2.6c-0.3-1-0.5-2.1-0.5-3.3v-5c0-1.1,0.2-2.1,0.5-3.1s0.8-1.9,1.5-2.6c0.7-0.8,1.5-1.4,2.5-1.8
		S169.2,241.5,170.5,241.5z"/>
	<path id="XMLID_359_" class="st2" d="M182.3,262.7v-21h14.9v4.2h-10.2v4.3h8.7v4h-8.7v4.4h10.2v4.2H182.3z"/>
	<path id="XMLID_357_" class="st2" d="M220.5,247.1c-0.5-0.3-1-0.6-1.5-0.8c-0.5-0.2-1-0.3-1.4-0.4c-0.5-0.1-0.9-0.2-1.3-0.2
		c-0.4,0-0.7,0-1,0c-0.6,0-1.1,0.1-1.4,0.2c-0.4,0.1-0.6,0.3-0.8,0.5c-0.2,0.2-0.4,0.4-0.4,0.6c-0.1,0.2-0.1,0.4-0.1,0.7
		c0,0.3,0.1,0.6,0.2,0.8s0.4,0.4,0.7,0.6c0.3,0.2,0.8,0.3,1.4,0.4c0.6,0.1,1.3,0.3,2.2,0.4c0.9,0.1,1.7,0.3,2.5,0.6
		c0.8,0.3,1.5,0.7,2.1,1.1c0.6,0.5,1.1,1.1,1.4,1.8c0.4,0.7,0.5,1.6,0.5,2.7c0,1.1-0.2,2.1-0.7,2.9c-0.5,0.8-1.1,1.5-1.9,2.1
		c-0.8,0.6-1.7,1-2.7,1.3c-1,0.3-2,0.4-3,0.4c-0.7,0-1.4,0-2.1-0.1c-0.7-0.1-1.5-0.2-2.2-0.4c-0.7-0.2-1.4-0.5-2.2-0.9
		s-1.4-0.9-2.1-1.5l2.7-3.6c1,0.9,2,1.5,3,1.8c1,0.3,2.1,0.4,3.1,0.4c1,0,1.8-0.2,2.4-0.6c0.5-0.4,0.8-0.9,0.8-1.5
		c0-0.3,0-0.5-0.1-0.8c-0.1-0.2-0.2-0.5-0.4-0.7c-0.2-0.2-0.5-0.4-0.9-0.5c-0.4-0.2-0.9-0.3-1.5-0.3c-1-0.1-2-0.3-2.9-0.5
		c-0.9-0.2-1.8-0.6-2.5-1c-0.7-0.5-1.3-1.1-1.7-1.8c-0.4-0.8-0.7-1.7-0.7-2.9c0-1.1,0.2-2.1,0.7-2.9c0.4-0.8,1-1.5,1.7-2
		c0.7-0.5,1.5-0.9,2.4-1.2c0.9-0.3,1.7-0.4,2.6-0.4c1.3,0,2.6,0.1,3.8,0.4c1.3,0.3,2.5,0.8,3.6,1.5L220.5,247.1z"/>
	<path id="XMLID_333_" class="st2" d="M241.6,257.5c-0.5,1.7-1.5,2.9-2.8,3.9c-1.4,0.9-3,1.4-5,1.4c-1.4,0-2.6-0.2-3.6-0.6
		c-1-0.4-1.9-1-2.5-1.7s-1.2-1.6-1.5-2.6c-0.3-1-0.5-2.1-0.5-3.3v-5c0-1.1,0.2-2.1,0.5-3.1s0.8-1.9,1.5-2.6s1.5-1.4,2.5-1.8
		c1-0.4,2.2-0.7,3.6-0.7c2,0,3.7,0.5,5,1.5c1.3,1,2.3,2.3,2.8,3.9l-4.4,1.6c-0.2-0.7-0.5-1.3-1.1-1.8c-0.6-0.5-1.4-0.7-2.3-0.7
		c-0.6,0-1.1,0.1-1.5,0.3c-0.4,0.2-0.8,0.4-1.1,0.8c-0.3,0.3-0.5,0.7-0.6,1.1c-0.1,0.4-0.2,0.8-0.2,1.3v5.7c0,0.5,0.1,0.9,0.2,1.3
		c0.1,0.4,0.4,0.8,0.6,1.1c0.3,0.3,0.6,0.6,1.1,0.8c0.4,0.2,0.9,0.3,1.5,0.3c0.9,0,1.7-0.2,2.3-0.7c0.6-0.5,1-1.1,1.1-1.9
		L241.6,257.5z"/>
	<path id="XMLID_259_" class="st2" d="M256.1,262.7v-8.6h-6.9v8.6h-4.7v-21h4.7v8.4h6.9v-8.4h4.6v21H256.1z"/>
	<path id="XMLID_256_" class="st2" d="M272.2,241.5c1.3,0,2.4,0.2,3.4,0.6c1,0.4,1.9,1,2.6,1.7c0.7,0.7,1.3,1.6,1.6,2.6
		c0.4,1,0.6,2.1,0.6,3.3v5c0,1.2-0.2,2.4-0.6,3.4c-0.4,1-0.9,1.9-1.7,2.6s-1.6,1.3-2.6,1.6s-2.2,0.6-3.4,0.6c-1.4,0-2.6-0.2-3.6-0.7
		s-1.9-1-2.5-1.8s-1.2-1.6-1.5-2.6c-0.3-1-0.5-2-0.5-3.1v-5c0-1.1,0.2-2.1,0.5-3.1c0.3-1,0.8-1.9,1.5-2.6s1.5-1.4,2.5-1.8
		S270.8,241.5,272.2,241.5z M272.1,245.8c-0.6,0-1.1,0.1-1.5,0.3c-0.4,0.2-0.8,0.4-1.1,0.8c-0.3,0.3-0.5,0.7-0.6,1.1
		c-0.1,0.4-0.2,0.8-0.2,1.3v5.7c0,0.5,0.1,0.9,0.2,1.3c0.1,0.4,0.4,0.8,0.6,1.1c0.3,0.3,0.6,0.6,1.1,0.8c0.4,0.2,0.9,0.3,1.5,0.3
		c1.1,0,2-0.3,2.6-1c0.6-0.7,0.9-1.5,0.9-2.5v-5.7c0-0.9-0.3-1.7-0.9-2.4C274.1,246.2,273.2,245.8,272.1,245.8z"/>
	<path id="XMLID_253_" class="st2" d="M291,241.5c1.3,0,2.4,0.2,3.4,0.6c1,0.4,1.9,1,2.6,1.7c0.7,0.7,1.3,1.6,1.6,2.6
		c0.4,1,0.6,2.1,0.6,3.3v5c0,1.2-0.2,2.4-0.6,3.4c-0.4,1-0.9,1.9-1.7,2.6c-0.7,0.7-1.6,1.3-2.6,1.6c-1,0.4-2.2,0.6-3.4,0.6
		c-1.4,0-2.6-0.2-3.6-0.7s-1.9-1-2.5-1.8c-0.7-0.8-1.2-1.6-1.5-2.6c-0.3-1-0.5-2-0.5-3.1v-5c0-1.1,0.2-2.1,0.5-3.1
		c0.3-1,0.8-1.9,1.5-2.6c0.7-0.8,1.5-1.4,2.5-1.8S289.6,241.5,291,241.5z M291,245.8c-0.6,0-1.1,0.1-1.5,0.3
		c-0.4,0.2-0.8,0.4-1.1,0.8c-0.3,0.3-0.5,0.7-0.6,1.1c-0.1,0.4-0.2,0.8-0.2,1.3v5.7c0,0.5,0.1,0.9,0.2,1.3c0.1,0.4,0.4,0.8,0.6,1.1
		c0.3,0.3,0.6,0.6,1.1,0.8c0.4,0.2,0.9,0.3,1.5,0.3c1.1,0,2-0.3,2.6-1c0.6-0.7,0.9-1.5,0.9-2.5v-5.7c0-0.9-0.3-1.7-0.9-2.4
		C293,246.2,292.1,245.8,291,245.8z"/>
	<path id="XMLID_251_" class="st2" d="M302.6,262.7v-21h4.7v16.9h10.2v4.2H302.6z"/>
</g>
</svg>
