<?xml version="1.0" encoding="utf-8"?>
<!-- Generator: Adobe Illustrator 17.0.1, SVG Export Plug-In . SVG Version: 6.00 Build 0)  -->
<!DOCTYPE svg PUBLIC "-//W3C//DTD SVG 1.1//EN" "http://www.w3.org/Graphics/SVG/1.1/DTD/svg11.dtd">
<svg version="1.1" id="Слой_1" xmlns="http://www.w3.org/2000/svg" xmlns:xlink="http://www.w3.org/1999/xlink" x="0px" y="0px"
	 width="57.912px" height="48.334px" viewBox="0 0 57.912 48.334" enable-background="new 0 0 57.912 48.334" xml:space="preserve">
<g>
	<g>
		<path fill="#FFFFFF" d="M42.912,48.334c-4.14,0-5.562-2.606-6.502-4.331c-0.195-0.358-0.375-0.693-0.57-0.975l-0.203-0.295
			c-1.127-1.646-3.013-4.399-5.637-4.399h-2.088c-2.624,0-4.51,2.753-5.637,4.399l-0.203,0.295c-0.195,0.281-0.375,0.617-0.57,0.975
			c-0.94,1.725-2.362,4.331-6.502,4.331c-5.068,0-15-8.319-15-18.375c0-5.363,1.784-8.033,3.51-10.614
			c1.558-2.329,3.028-4.53,3.368-8.839c0.71-8.992,3.242-10.272,4.287-10.407C11.331,0.048,11.57,0,11.878,0
			c1.656,0,4.283,1.326,7.395,7.642c4.138,8.401,3.277,16.444,2.994,19.086l-0.022,0.21c-0.318,3.03,0.233,3.571,0.239,3.576
			c0.012-0.014,0.206-0.027,0.615-0.28c0.594-0.368,0.996-1.929,1.318-3.183c0.57-2.211,1.215-4.717,3.495-4.717H30
			c2.28,0,2.925,2.506,3.495,4.717c0.322,1.254,0.725,2.815,1.318,3.183c0.407,0.252,0.602,0.266,0.638,0.266
			c0.002-0.01,0.53-0.584,0.217-3.562l-0.022-0.21c-0.283-2.643-1.144-10.685,2.994-19.086C41.751,1.326,44.378,0,46.034,0
			c0.308,0,0.547,0.048,0.713,0.098c1.044,0.136,3.577,1.416,4.287,10.408c0.34,4.31,1.811,6.51,3.368,8.839
			c1.726,2.582,3.51,5.251,3.51,10.614C57.912,40.015,47.98,48.334,42.912,48.334z M27.912,36.334H30
			c3.678,0,6.025,3.427,7.287,5.269l0.197,0.287c0.243,0.352,0.456,0.742,0.682,1.156c0.882,1.617,1.793,3.289,4.746,3.289
			c3.77,0,13-7.087,13-16.375c0-4.756-1.541-7.062-3.173-9.502c-1.631-2.44-3.317-4.964-3.699-9.794
			c-0.595-7.534-2.484-8.579-2.503-8.579c-0.14,0-0.277-0.029-0.404-0.085C46.148,2.007,46.106,2,46.034,2
			c-0.398,0-2.541,0.314-5.6,6.526c-3.882,7.881-3.068,15.49-2.801,17.99l0.022,0.213c0.363,3.451-0.244,4.571-0.732,5.114
			c-0.737,0.82-1.87,0.892-3.163,0.091c-1.277-0.791-1.748-2.618-2.203-4.385c-0.369-1.433-0.828-3.215-1.558-3.215h-2.088
			c-0.729,0-1.188,1.783-1.558,3.215c-0.455,1.767-0.926,3.594-2.203,4.385c-1.291,0.8-2.425,0.729-3.163-0.09
			c-0.488-0.543-1.096-1.663-0.732-5.114l0.022-0.213c0.268-2.5,1.081-10.109-2.801-17.99C14.419,2.314,12.276,2,11.878,2
			c-0.09,0-0.137,0.013-0.137,0.014c-0.103,0.049-0.175,0.064-0.269,0.068c-0.206,0.096-2.015,1.16-2.601,8.581
			c-0.382,4.83-2.068,7.354-3.699,9.794C3.541,22.897,2,25.203,2,29.959c0,9.288,9.23,16.375,13,16.375
			c2.953,0,3.864-1.672,4.746-3.289c0.226-0.414,0.438-0.804,0.682-1.156l0.197-0.287C21.887,39.761,24.234,36.334,27.912,36.334z"
			/>
	</g>
	<g>
		<path fill="#FFFFFF" d="M46.712,25.178c-0.553,0-1-0.448-1-1s0.447-1,1-1c0.454,0,0.823-0.369,0.823-0.823
			c0-0.454-0.369-0.823-0.823-0.823c-0.553,0-1-0.448-1-1s0.447-1,1-1c1.557,0,2.823,1.266,2.823,2.823S48.269,25.178,46.712,25.178
			z"/>
	</g>
	<g>
		<path fill="#FFFFFF" d="M47.03,34.47c-0.553,0-1-0.448-1-1s0.447-1,1-1c0.454,0,0.823-0.369,0.823-0.823
			c0-0.454-0.369-0.823-0.823-0.823c-0.553,0-1-0.448-1-1s0.447-1,1-1c1.557,0,2.823,1.266,2.823,2.823S48.587,34.47,47.03,34.47z"
			/>
	</g>
	<g>
		<path fill="#FFFFFF" d="M42.917,30.127c-0.553,0-1-0.448-1-1s0.447-1,1-1c0.454,0,0.823-0.369,0.823-0.823
			c0-0.454-0.369-0.823-0.823-0.823c-0.553,0-1-0.448-1-1s0.447-1,1-1c1.557,0,2.823,1.267,2.823,2.823S44.474,30.127,42.917,30.127
			z"/>
	</g>
	<g>
		<path fill="#FFFFFF" d="M12.059,25.178c-1.557,0-2.823-1.267-2.823-2.823s1.267-2.823,2.823-2.823c0.553,0,1,0.448,1,1
			s-0.447,1-1,1c-0.454,0-0.823,0.369-0.823,0.823c0,0.454,0.369,0.823,0.823,0.823c0.553,0,1,0.448,1,1
			S12.611,25.178,12.059,25.178z"/>
	</g>
	<g>
		<path fill="#FFFFFF" d="M11.74,34.47c-1.557,0-2.823-1.267-2.823-2.823s1.267-2.823,2.823-2.823c0.553,0,1,0.448,1,1s-0.447,1-1,1
			c-0.454,0-0.823,0.369-0.823,0.823c0,0.454,0.369,0.823,0.823,0.823c0.553,0,1,0.448,1,1S12.293,34.47,11.74,34.47z"/>
	</g>
	<g>
		<path fill="#FFFFFF" d="M15.854,30.127c-1.557,0-2.823-1.266-2.823-2.823s1.267-2.823,2.823-2.823c0.553,0,1,0.448,1,1
			s-0.447,1-1,1c-0.454,0-0.823,0.369-0.823,0.823c0,0.454,0.369,0.823,0.823,0.823c0.553,0,1,0.448,1,1
			S16.406,30.127,15.854,30.127z"/>
	</g>
</g>
<g>
	<g>
		<path fill="#FFFFFF" d="M42.912,48.334c-4.14,0-5.562-2.606-6.502-4.331c-0.195-0.358-0.375-0.693-0.57-0.975l-0.203-0.295
			c-1.127-1.646-3.013-4.399-5.637-4.399h-2.088c-2.624,0-4.51,2.753-5.637,4.399l-0.203,0.295c-0.195,0.281-0.375,0.617-0.57,0.975
			c-0.94,1.725-2.362,4.331-6.502,4.331c-5.068,0-15-8.319-15-18.375c0-5.363,1.784-8.033,3.51-10.614
			c1.558-2.329,3.028-4.53,3.368-8.839c0.71-8.992,3.242-10.272,4.287-10.407C11.331,0.048,11.57,0,11.878,0
			c1.656,0,4.283,1.326,7.395,7.642c4.138,8.401,3.277,16.444,2.994,19.086l-0.022,0.21c-0.318,3.03,0.233,3.571,0.239,3.576
			c0.012-0.014,0.206-0.027,0.615-0.28c0.594-0.368,0.996-1.929,1.318-3.183c0.57-2.211,1.215-4.717,3.495-4.717H30
			c2.28,0,2.925,2.506,3.495,4.717c0.322,1.254,0.725,2.815,1.318,3.183c0.407,0.252,0.602,0.266,0.638,0.266
			c0.002-0.01,0.53-0.584,0.217-3.562l-0.022-0.21c-0.283-2.643-1.144-10.685,2.994-19.086C41.751,1.326,44.378,0,46.034,0
			c0.308,0,0.547,0.048,0.713,0.098c1.044,0.136,3.577,1.416,4.287,10.408c0.34,4.31,1.811,6.51,3.368,8.839
			c1.726,2.582,3.51,5.251,3.51,10.614C57.912,40.015,47.98,48.334,42.912,48.334z M27.912,36.334H30
			c3.678,0,6.025,3.427,7.287,5.269l0.197,0.287c0.243,0.352,0.456,0.742,0.682,1.156c0.882,1.617,1.793,3.289,4.746,3.289
			c3.77,0,13-7.087,13-16.375c0-4.756-1.541-7.062-3.173-9.502c-1.631-2.44-3.317-4.964-3.699-9.794
			c-0.595-7.534-2.484-8.579-2.503-8.579c-0.14,0-0.277-0.029-0.404-0.085C46.148,2.007,46.106,2,46.034,2
			c-0.398,0-2.541,0.314-5.6,6.526c-3.882,7.881-3.068,15.49-2.801,17.99l0.022,0.213c0.363,3.451-0.244,4.571-0.732,5.114
			c-0.737,0.82-1.87,0.892-3.163,0.091c-1.277-0.791-1.748-2.618-2.203-4.385c-0.369-1.433-0.828-3.215-1.558-3.215h-2.088
			c-0.729,0-1.188,1.783-1.558,3.215c-0.455,1.767-0.926,3.594-2.203,4.385c-1.291,0.8-2.425,0.729-3.163-0.09
			c-0.488-0.543-1.096-1.663-0.732-5.114l0.022-0.213c0.268-2.5,1.081-10.109-2.801-17.99C14.419,2.314,12.276,2,11.878,2
			c-0.09,0-0.137,0.013-0.137,0.014c-0.103,0.049-0.175,0.064-0.269,0.068c-0.206,0.096-2.015,1.16-2.601,8.581
			c-0.382,4.83-2.068,7.354-3.699,9.794C3.541,22.897,2,25.203,2,29.959c0,9.288,9.23,16.375,13,16.375
			c2.953,0,3.864-1.672,4.746-3.289c0.226-0.414,0.438-0.804,0.682-1.156l0.197-0.287C21.887,39.761,24.234,36.334,27.912,36.334z"
			/>
	</g>
	<g>
		<path fill="#FFFFFF" d="M46.712,25.178c-0.553,0-1-0.448-1-1s0.447-1,1-1c0.454,0,0.823-0.369,0.823-0.823
			c0-0.454-0.369-0.823-0.823-0.823c-0.553,0-1-0.448-1-1s0.447-1,1-1c1.557,0,2.823,1.266,2.823,2.823S48.269,25.178,46.712,25.178
			z"/>
	</g>
	<g>
		<path fill="#FFFFFF" d="M47.03,34.47c-0.553,0-1-0.448-1-1s0.447-1,1-1c0.454,0,0.823-0.369,0.823-0.823
			c0-0.454-0.369-0.823-0.823-0.823c-0.553,0-1-0.448-1-1s0.447-1,1-1c1.557,0,2.823,1.266,2.823,2.823S48.587,34.47,47.03,34.47z"
			/>
	</g>
	<g>
		<path fill="#FFFFFF" d="M42.917,30.127c-0.553,0-1-0.448-1-1s0.447-1,1-1c0.454,0,0.823-0.369,0.823-0.823
			c0-0.454-0.369-0.823-0.823-0.823c-0.553,0-1-0.448-1-1s0.447-1,1-1c1.557,0,2.823,1.267,2.823,2.823S44.474,30.127,42.917,30.127
			z"/>
	</g>
	<g>
		<path fill="#FFFFFF" d="M12.059,25.178c-1.557,0-2.823-1.267-2.823-2.823s1.267-2.823,2.823-2.823c0.553,0,1,0.448,1,1
			s-0.447,1-1,1c-0.454,0-0.823,0.369-0.823,0.823c0,0.454,0.369,0.823,0.823,0.823c0.553,0,1,0.448,1,1
			S12.611,25.178,12.059,25.178z"/>
	</g>
	<g>
		<path fill="#FFFFFF" d="M11.74,34.47c-1.557,0-2.823-1.267-2.823-2.823s1.267-2.823,2.823-2.823c0.553,0,1,0.448,1,1s-0.447,1-1,1
			c-0.454,0-0.823,0.369-0.823,0.823c0,0.454,0.369,0.823,0.823,0.823c0.553,0,1,0.448,1,1S12.293,34.47,11.74,34.47z"/>
	</g>
	<g>
		<path fill="#FFFFFF" d="M15.854,30.127c-1.557,0-2.823-1.266-2.823-2.823s1.267-2.823,2.823-2.823c0.553,0,1,0.448,1,1
			s-0.447,1-1,1c-0.454,0-0.823,0.369-0.823,0.823c0,0.454,0.369,0.823,0.823,0.823c0.553,0,1,0.448,1,1
			S16.406,30.127,15.854,30.127z"/>
	</g>
</g>
</svg>
