<?xml version="1.0" encoding="utf-8"?>
<!-- Generator: Adobe Illustrator 17.0.1, SVG Export Plug-In . SVG Version: 6.00 Build 0)  -->
<!DOCTYPE svg PUBLIC "-//W3C//DTD SVG 1.1//EN" "http://www.w3.org/Graphics/SVG/1.1/DTD/svg11.dtd">
<svg version="1.1" id="Слой_1" xmlns="http://www.w3.org/2000/svg" xmlns:xlink="http://www.w3.org/1999/xlink" x="0px" y="0px"
	 width="58.375px" height="48.625px" viewBox="0 0 58.375 48.625" enable-background="new 0 0 58.375 48.625" xml:space="preserve">
<g>
	<path fill="none" stroke="#13A99F" stroke-width="2" stroke-linecap="round" stroke-linejoin="round" stroke-miterlimit="10" d="
		M28.251,23.459c-2.716,0-2.19,6.452-4.287,7.75c-2.625,1.625-2.625-1.875-2.375-4.25s1.25-10.375-2.875-18.75s-7-7-7-7
		s-2.75,0-3.5,9.5s-6.875,9.625-6.875,19.375s9.625,17.375,14,17.375s5.125-3.25,6.25-4.875s3.323-5.125,6.662-5.125h2.088
		c3.338,0,5.537,3.5,6.662,5.125s1.875,4.875,6.25,4.875c4.375,0,14-7.625,14-17.375s-6.125-9.875-6.875-19.375s-3.5-9.5-3.5-9.5
		s-2.875-1.375-7,7s-3.125,16.375-2.875,18.75s0.25,5.875-2.375,4.25c-2.096-1.298-1.57-7.75-4.287-7.75H28.251z"/>
	<path fill="none" stroke="#13A99F" stroke-width="2" stroke-linecap="round" stroke-linejoin="round" stroke-miterlimit="10" d="
		M47.051,24.303c1.007,0,1.823-0.816,1.823-1.823s-0.816-1.823-1.823-1.823"/>
	<path fill="none" stroke="#13A99F" stroke-width="2" stroke-linecap="round" stroke-linejoin="round" stroke-miterlimit="10" d="
		M47.369,33.595c1.007,0,1.823-0.816,1.823-1.823s-0.816-1.823-1.823-1.823"/>
	<path fill="none" stroke="#13A99F" stroke-width="2" stroke-linecap="round" stroke-linejoin="round" stroke-miterlimit="10" d="
		M43.256,29.252c1.007,0,1.823-0.816,1.823-1.823c0-1.007-0.816-1.823-1.823-1.823"/>
	<path fill="none" stroke="#13A99F" stroke-width="2" stroke-linecap="round" stroke-linejoin="round" stroke-miterlimit="10" d="
		M12.397,24.303c-1.007,0-1.823-0.816-1.823-1.823s0.816-1.823,1.823-1.823"/>
	<path fill="none" stroke="#13A99F" stroke-width="2" stroke-linecap="round" stroke-linejoin="round" stroke-miterlimit="10" d="
		M12.079,33.595c-1.007,0-1.823-0.816-1.823-1.823s0.816-1.823,1.823-1.823"/>
	<path fill="none" stroke="#13A99F" stroke-width="2" stroke-linecap="round" stroke-linejoin="round" stroke-miterlimit="10" d="
		M16.192,29.252c-1.007,0-1.823-0.816-1.823-1.823c0-1.007,0.816-1.823,1.823-1.823"/>
</g>
<g>
	<path fill="none" stroke="#13A99F" stroke-width="2" stroke-linecap="round" stroke-linejoin="round" stroke-miterlimit="10" d="
		M28.251,23.459c-2.716,0-2.19,6.452-4.287,7.75c-2.625,1.625-2.625-1.875-2.375-4.25s1.25-10.375-2.875-18.75s-7-7-7-7
		s-2.75,0-3.5,9.5s-6.875,9.625-6.875,19.375s9.625,17.375,14,17.375s5.125-3.25,6.25-4.875s3.323-5.125,6.662-5.125h2.088
		c3.338,0,5.537,3.5,6.662,5.125s1.875,4.875,6.25,4.875c4.375,0,14-7.625,14-17.375s-6.125-9.875-6.875-19.375s-3.5-9.5-3.5-9.5
		s-2.875-1.375-7,7s-3.125,16.375-2.875,18.75s0.25,5.875-2.375,4.25c-2.096-1.298-1.57-7.75-4.287-7.75H28.251z"/>
	<path fill="none" stroke="#13A99F" stroke-width="2" stroke-linecap="round" stroke-linejoin="round" stroke-miterlimit="10" d="
		M47.051,24.303c1.007,0,1.823-0.816,1.823-1.823s-0.816-1.823-1.823-1.823"/>
	<path fill="none" stroke="#13A99F" stroke-width="2" stroke-linecap="round" stroke-linejoin="round" stroke-miterlimit="10" d="
		M47.369,33.595c1.007,0,1.823-0.816,1.823-1.823s-0.816-1.823-1.823-1.823"/>
	<path fill="none" stroke="#13A99F" stroke-width="2" stroke-linecap="round" stroke-linejoin="round" stroke-miterlimit="10" d="
		M43.256,29.252c1.007,0,1.823-0.816,1.823-1.823c0-1.007-0.816-1.823-1.823-1.823"/>
	<path fill="none" stroke="#13A99F" stroke-width="2" stroke-linecap="round" stroke-linejoin="round" stroke-miterlimit="10" d="
		M12.397,24.303c-1.007,0-1.823-0.816-1.823-1.823s0.816-1.823,1.823-1.823"/>
	<path fill="none" stroke="#13A99F" stroke-width="2" stroke-linecap="round" stroke-linejoin="round" stroke-miterlimit="10" d="
		M12.079,33.595c-1.007,0-1.823-0.816-1.823-1.823s0.816-1.823,1.823-1.823"/>
	<path fill="none" stroke="#13A99F" stroke-width="2" stroke-linecap="round" stroke-linejoin="round" stroke-miterlimit="10" d="
		M16.192,29.252c-1.007,0-1.823-0.816-1.823-1.823c0-1.007,0.816-1.823,1.823-1.823"/>
</g>
</svg>
