<?xml version="1.0" encoding="utf-8"?>
<!-- Generator: Adobe Illustrator 17.0.1, SVG Export Plug-In . SVG Version: 6.00 Build 0)  -->
<!DOCTYPE svg PUBLIC "-//W3C//DTD SVG 1.1//EN" "http://www.w3.org/Graphics/SVG/1.1/DTD/svg11.dtd">
<svg version="1.1" id="Слой_1" xmlns="http://www.w3.org/2000/svg" xmlns:xlink="http://www.w3.org/1999/xlink" x="0px" y="0px"
	 width="49.545px" height="58.369px" viewBox="0 0 49.545 58.369" enable-background="new 0 0 49.545 58.369" xml:space="preserve">
<g>
	<g>
		<g>
			<path fill="#FFFFFF" d="M16.798,58.369c-0.655,0-1.186-0.531-1.186-1.186v-6.743h-4.883c-3.092,0-5.608-2.516-5.608-5.608
				l-0.05-8.182H1.186c-0.417,0-0.803-0.219-1.017-0.576c-0.215-0.358-0.226-0.801-0.03-1.169l4.822-9.041
				c-0.365-1.527-0.55-3.09-0.55-4.655C4.412,9.514,14.535,0,26.979,0c12.443,0,22.566,9.514,22.566,21.209
				c0,3.409-0.886,6.804-2.563,9.816c-6.706,12.929-5.96,24.963-5.952,25.083c0.045,0.653-0.447,1.22-1.1,1.266
				c-0.653,0.045-1.22-0.446-1.267-1.099c-0.037-0.516-0.816-12.792,6.229-26.373c1.519-2.729,2.28-5.643,2.28-8.693
				c0-10.386-9.059-18.836-20.193-18.836c-11.135,0-20.194,8.45-20.194,18.836c0,1.517,0.197,3.033,0.586,4.507
				c0.076,0.289,0.041,0.597-0.1,0.861l-4.107,7.7H6.25c0.652,0,1.182,0.527,1.186,1.179l0.057,9.369
				c0,1.791,1.451,3.242,3.235,3.242h5.968c0.355,0,0.692,0.159,0.917,0.434l0.102,0.124c0.174,0.212,0.269,0.478,0.269,0.753v7.805
				C17.984,57.838,17.453,58.369,16.798,58.369z"/>
		</g>
	</g>
	<g>
		<circle fill="#FFFFFF" cx="16.291" cy="36.134" r="2.5"/>
	</g>
	<g>
		<circle fill="#FFFFFF" cx="26.208" cy="31.134" r="2.5"/>
	</g>
	<g>
		<circle fill="#FFFFFF" cx="26.208" cy="41.134" r="2.5"/>
	</g>
</g>
<g>
	<g>
		<g>
			<path fill="#FFFFFF" d="M16.798,58.369c-0.655,0-1.186-0.531-1.186-1.186v-6.743h-4.883c-3.092,0-5.608-2.516-5.608-5.608
				l-0.05-8.182H1.186c-0.417,0-0.803-0.219-1.017-0.576c-0.215-0.358-0.226-0.801-0.03-1.169l4.822-9.041
				c-0.365-1.527-0.55-3.09-0.55-4.655C4.412,9.514,14.535,0,26.979,0c12.443,0,22.566,9.514,22.566,21.209
				c0,3.409-0.886,6.804-2.563,9.816c-6.706,12.929-5.96,24.963-5.952,25.083c0.045,0.653-0.447,1.22-1.1,1.266
				c-0.653,0.045-1.22-0.446-1.267-1.099c-0.037-0.516-0.816-12.792,6.229-26.373c1.519-2.729,2.28-5.643,2.28-8.693
				c0-10.386-9.059-18.836-20.193-18.836c-11.135,0-20.194,8.45-20.194,18.836c0,1.517,0.197,3.033,0.586,4.507
				c0.076,0.289,0.041,0.597-0.1,0.861l-4.107,7.7H6.25c0.652,0,1.182,0.527,1.186,1.179l0.057,9.369
				c0,1.791,1.451,3.242,3.235,3.242h5.968c0.355,0,0.692,0.159,0.917,0.434l0.102,0.124c0.174,0.212,0.269,0.478,0.269,0.753v7.805
				C17.984,57.838,17.453,58.369,16.798,58.369z"/>
		</g>
	</g>
	<g>
		<circle fill="#FFFFFF" cx="16.291" cy="36.134" r="2.5"/>
	</g>
	<g>
		<circle fill="#FFFFFF" cx="26.208" cy="31.134" r="2.5"/>
	</g>
	<g>
		<circle fill="#FFFFFF" cx="26.208" cy="41.134" r="2.5"/>
	</g>
</g>
</svg>
