<?xml version="1.0" encoding="utf-8"?>
<!-- Generator: Adobe Illustrator 17.0.1, SVG Export Plug-In . SVG Version: 6.00 Build 0)  -->
<!DOCTYPE svg PUBLIC "-//W3C//DTD SVG 1.1//EN" "http://www.w3.org/Graphics/SVG/1.1/DTD/svg11.dtd">
<svg version="1.1" id="Слой_1" xmlns="http://www.w3.org/2000/svg" xmlns:xlink="http://www.w3.org/1999/xlink" x="0px" y="0px"
	 width="49.545px" height="58.369px" viewBox="0 0 49.545 58.369" enable-background="new 0 0 49.545 58.369" xml:space="preserve">
<g>
	<g>
		<g>
			<path fill="#FFFFFF" d="M16.798,58.369c-0.655,0-1.186-0.531-1.186-1.186v-6.743h-4.883c-3.092,0-5.608-2.516-5.608-5.608
				l-0.05-8.182H1.186c-0.417,0-0.803-0.219-1.017-0.576c-0.215-0.358-0.226-0.801-0.03-1.169l4.822-9.041
				c-0.365-1.527-0.55-3.09-0.55-4.655C4.412,9.514,14.535,0,26.979,0c12.443,0,22.566,9.514,22.566,21.209
				c0,3.409-0.886,6.804-2.563,9.816c-6.706,12.929-5.96,24.963-5.952,25.083c0.045,0.653-0.447,1.22-1.1,1.266
				c-0.653,0.045-1.22-0.446-1.267-1.099c-0.037-0.516-0.816-12.792,6.229-26.373c1.519-2.729,2.28-5.643,2.28-8.693
				c0-10.386-9.059-18.836-20.193-18.836c-11.135,0-20.194,8.45-20.194,18.836c0,1.517,0.197,3.033,0.586,4.507
				c0.076,0.289,0.041,0.597-0.1,0.861l-4.107,7.7H6.25c0.652,0,1.182,0.527,1.186,1.179l0.057,9.369
				c0,1.791,1.451,3.242,3.235,3.242h5.968c0.355,0,0.692,0.159,0.917,0.434l0.102,0.124c0.174,0.212,0.269,0.478,0.269,0.753v7.805
				C17.984,57.838,17.453,58.369,16.798,58.369z"/>
		</g>
	</g>
	<g>
		<g>
			<g>
				<path fill="#FFFFFF" d="M27.566,28.294c-3.566,0-6.468-2.902-6.468-6.468c0-3.567,2.901-6.468,6.468-6.468
					c3.567,0,6.468,2.902,6.468,6.468C34.034,25.393,31.133,28.294,27.566,28.294z M27.566,17.731c-2.258,0-4.095,1.837-4.095,4.095
					c0,2.258,1.837,4.095,4.095,4.095c2.258,0,4.095-1.837,4.095-4.095C31.661,19.568,29.824,17.731,27.566,17.731z"/>
			</g>
		</g>
		<g>
			<g>
				<path fill="#FFFFFF" d="M17.296,16.753c-1.787,0-3.241-1.453-3.241-3.24c0-1.787,1.454-3.241,3.241-3.241
					c1.787,0,3.241,1.454,3.241,3.241C20.537,15.299,19.083,16.753,17.296,16.753z M17.296,12.645c-0.479,0-0.868,0.389-0.868,0.868
					c0,0.478,0.389,0.867,0.868,0.867c0.479,0,0.868-0.389,0.868-0.867C18.164,13.034,17.775,12.645,17.296,12.645z"/>
			</g>
		</g>
		<g>
			<g>
				<path fill="#FFFFFF" d="M25.023,38.858c-1.949,0-3.534-1.585-3.534-3.534c0-1.948,1.585-3.533,3.534-3.533
					c1.949,0,3.534,1.585,3.534,3.533C28.557,37.272,26.972,38.858,25.023,38.858z M25.023,34.163c-0.64,0-1.161,0.521-1.161,1.161
					c0,0.64,0.521,1.161,1.161,1.161c0.64,0,1.161-0.521,1.161-1.161C26.184,34.684,25.663,34.163,25.023,34.163z"/>
			</g>
		</g>
		<g>
			<g>
				<path fill="#FFFFFF" d="M39.304,19.296c-2.057,0-3.73-1.673-3.73-3.73c0-2.056,1.673-3.729,3.73-3.729
					c2.056,0,3.729,1.673,3.729,3.729C43.032,17.623,41.36,19.296,39.304,19.296z M39.304,14.21c-0.748,0-1.357,0.608-1.357,1.356
					c0,0.748,0.609,1.357,1.357,1.357c0.748,0,1.356-0.609,1.356-1.357C40.659,14.819,40.051,14.21,39.304,14.21z"/>
			</g>
		</g>
		<g>
			<g>
				<path fill="#FFFFFF" d="M22.479,19.1c-0.257,0-0.517-0.083-0.734-0.255l-3.717-2.934c-0.514-0.406-0.602-1.152-0.196-1.666
					c0.406-0.514,1.152-0.602,1.666-0.196l3.717,2.934c0.514,0.406,0.602,1.152,0.196,1.666C23.177,18.946,22.83,19.1,22.479,19.1z"
					/>
			</g>
		</g>
		<g>
			<g>
				<path fill="#FFFFFF" d="M32.653,21.252c-0.392,0-0.776-0.194-1.002-0.55c-0.352-0.553-0.189-1.286,0.364-1.638l4.303-2.739
					c0.553-0.352,1.286-0.189,1.638,0.364c0.352,0.553,0.189,1.286-0.364,1.638l-4.303,2.739
					C33.092,21.192,32.871,21.252,32.653,21.252z"/>
			</g>
		</g>
		<g>
			<g>
				<path fill="#FFFFFF" d="M25.612,33.576c-0.074,0-0.15-0.007-0.225-0.022c-0.644-0.124-1.065-0.746-0.941-1.389l0.977-5.086
					c0.124-0.644,0.748-1.063,1.389-0.941c0.644,0.124,1.065,0.746,0.941,1.389l-0.977,5.086
					C26.666,33.181,26.169,33.576,25.612,33.576z"/>
			</g>
		</g>
	</g>
</g>
<g>
	<g>
		<g>
			<path fill="#FFFFFF" d="M16.798,58.369c-0.655,0-1.186-0.531-1.186-1.186v-6.743h-4.883c-3.092,0-5.608-2.516-5.608-5.608
				l-0.05-8.182H1.186c-0.417,0-0.803-0.219-1.017-0.576c-0.215-0.358-0.226-0.801-0.03-1.169l4.822-9.041
				c-0.365-1.527-0.55-3.09-0.55-4.655C4.412,9.514,14.535,0,26.979,0c12.443,0,22.566,9.514,22.566,21.209
				c0,3.409-0.886,6.804-2.563,9.816c-6.706,12.929-5.96,24.963-5.952,25.083c0.045,0.653-0.447,1.22-1.1,1.266
				c-0.653,0.045-1.22-0.446-1.267-1.099c-0.037-0.516-0.816-12.792,6.229-26.373c1.519-2.729,2.28-5.643,2.28-8.693
				c0-10.386-9.059-18.836-20.193-18.836c-11.135,0-20.194,8.45-20.194,18.836c0,1.517,0.197,3.033,0.586,4.507
				c0.076,0.289,0.041,0.597-0.1,0.861l-4.107,7.7H6.25c0.652,0,1.182,0.527,1.186,1.179l0.057,9.369
				c0,1.791,1.451,3.242,3.235,3.242h5.968c0.355,0,0.692,0.159,0.917,0.434l0.102,0.124c0.174,0.212,0.269,0.478,0.269,0.753v7.805
				C17.984,57.838,17.453,58.369,16.798,58.369z"/>
		</g>
	</g>
	<g>
		<g>
			<g>
				<path fill="#FFFFFF" d="M27.566,28.294c-3.566,0-6.468-2.902-6.468-6.468c0-3.567,2.901-6.468,6.468-6.468
					c3.567,0,6.468,2.902,6.468,6.468C34.034,25.393,31.133,28.294,27.566,28.294z M27.566,17.731c-2.258,0-4.095,1.837-4.095,4.095
					c0,2.258,1.837,4.095,4.095,4.095c2.258,0,4.095-1.837,4.095-4.095C31.661,19.568,29.824,17.731,27.566,17.731z"/>
			</g>
		</g>
		<g>
			<g>
				<path fill="#FFFFFF" d="M17.296,16.753c-1.787,0-3.241-1.453-3.241-3.24c0-1.787,1.454-3.241,3.241-3.241
					c1.787,0,3.241,1.454,3.241,3.241C20.537,15.299,19.083,16.753,17.296,16.753z M17.296,12.645c-0.479,0-0.868,0.389-0.868,0.868
					c0,0.478,0.389,0.867,0.868,0.867c0.479,0,0.868-0.389,0.868-0.867C18.164,13.034,17.775,12.645,17.296,12.645z"/>
			</g>
		</g>
		<g>
			<g>
				<path fill="#FFFFFF" d="M25.023,38.858c-1.949,0-3.534-1.585-3.534-3.534c0-1.948,1.585-3.533,3.534-3.533
					c1.949,0,3.534,1.585,3.534,3.533C28.557,37.272,26.972,38.858,25.023,38.858z M25.023,34.163c-0.64,0-1.161,0.521-1.161,1.161
					c0,0.64,0.521,1.161,1.161,1.161c0.64,0,1.161-0.521,1.161-1.161C26.184,34.684,25.663,34.163,25.023,34.163z"/>
			</g>
		</g>
		<g>
			<g>
				<path fill="#FFFFFF" d="M39.304,19.296c-2.057,0-3.73-1.673-3.73-3.73c0-2.056,1.673-3.729,3.73-3.729
					c2.056,0,3.729,1.673,3.729,3.729C43.032,17.623,41.36,19.296,39.304,19.296z M39.304,14.21c-0.748,0-1.357,0.608-1.357,1.356
					c0,0.748,0.609,1.357,1.357,1.357c0.748,0,1.356-0.609,1.356-1.357C40.659,14.819,40.051,14.21,39.304,14.21z"/>
			</g>
		</g>
		<g>
			<g>
				<path fill="#FFFFFF" d="M22.479,19.1c-0.257,0-0.517-0.083-0.734-0.255l-3.717-2.934c-0.514-0.406-0.602-1.152-0.196-1.666
					c0.406-0.514,1.152-0.602,1.666-0.196l3.717,2.934c0.514,0.406,0.602,1.152,0.196,1.666C23.177,18.946,22.83,19.1,22.479,19.1z"
					/>
			</g>
		</g>
		<g>
			<g>
				<path fill="#FFFFFF" d="M32.653,21.252c-0.392,0-0.776-0.194-1.002-0.55c-0.352-0.553-0.189-1.286,0.364-1.638l4.303-2.739
					c0.553-0.352,1.286-0.189,1.638,0.364c0.352,0.553,0.189,1.286-0.364,1.638l-4.303,2.739
					C33.092,21.192,32.871,21.252,32.653,21.252z"/>
			</g>
		</g>
		<g>
			<g>
				<path fill="#FFFFFF" d="M25.612,33.576c-0.074,0-0.15-0.007-0.225-0.022c-0.644-0.124-1.065-0.746-0.941-1.389l0.977-5.086
					c0.124-0.644,0.748-1.063,1.389-0.941c0.644,0.124,1.065,0.746,0.941,1.389l-0.977,5.086
					C26.666,33.181,26.169,33.576,25.612,33.576z"/>
			</g>
		</g>
	</g>
</g>
</svg>
