<?xml version="1.0" encoding="utf-8"?>
<!-- Generator: Adobe Illustrator 17.0.1, SVG Export Plug-In . SVG Version: 6.00 Build 0)  -->
<!DOCTYPE svg PUBLIC "-//W3C//DTD SVG 1.1//EN" "http://www.w3.org/Graphics/SVG/1.1/DTD/svg11.dtd">
<svg version="1.1" id="Слой_1" xmlns="http://www.w3.org/2000/svg" xmlns:xlink="http://www.w3.org/1999/xlink" x="0px" y="0px"
	 width="55.5px" height="57.308px" viewBox="0 0 55.5 57.308" enable-background="new 0 0 55.5 57.308" xml:space="preserve">
<g>
	<g>
		<path fill="#FFFFFF" d="M16.75,42.5C7.514,42.5,0,34.986,0,25.75S7.514,9,16.75,9S33.5,16.514,33.5,25.75S25.986,42.5,16.75,42.5z
			 M16.75,11C8.617,11,2,17.617,2,25.75S8.617,40.5,16.75,40.5S31.5,33.883,31.5,25.75S24.883,11,16.75,11z"/>
	</g>
	<g>
		<path fill="#FFFFFF" d="M31.632,57.308c-9.236,0-16.75-7.514-16.75-16.75s7.514-16.75,16.75-16.75s16.75,7.514,16.75,16.75
			S40.868,57.308,31.632,57.308z M31.632,25.808c-8.133,0-14.75,6.617-14.75,14.75s6.617,14.75,14.75,14.75s14.75-6.617,14.75-14.75
			S39.765,25.808,31.632,25.808z"/>
	</g>
	<g>
		<path fill="#FFFFFF" d="M26.723,14.652c-0.256,0-0.512-0.098-0.707-0.293c-0.391-0.391-0.391-1.023,0-1.414L36.961,2H26.723
			c-0.553,0-1-0.448-1-1s0.447-1,1-1h12.652c0.404,0,0.77,0.244,0.924,0.617c0.155,0.374,0.069,0.804-0.217,1.09L27.43,14.359
			C27.234,14.555,26.979,14.652,26.723,14.652z"/>
	</g>
	<g>
		<path fill="#FFFFFF" d="M39.375,14.652c-0.553,0-1-0.448-1-1V1c0-0.552,0.447-1,1-1s1,0.448,1,1v12.652
			C40.375,14.205,39.928,14.652,39.375,14.652z"/>
	</g>
	<g>
		<path fill="#FFFFFF" d="M41.823,29.552c-0.256,0-0.512-0.098-0.707-0.293c-0.391-0.391-0.391-1.023,0-1.414l12.677-12.677
			c0.391-0.391,1.023-0.391,1.414,0s0.391,1.023,0,1.414L42.53,29.259C42.335,29.455,42.079,29.552,41.823,29.552z"/>
	</g>
	<g>
		<path fill="#FFFFFF" d="M53.438,27.938c-0.256,0-0.512-0.098-0.707-0.293l-9.938-9.938c-0.391-0.391-0.391-1.023,0-1.414
			s1.023-0.391,1.414,0l9.938,9.938c0.391,0.391,0.391,1.023,0,1.414C53.949,27.84,53.693,27.938,53.438,27.938z"/>
	</g>
</g>
<g>
	<g>
		<path fill="#FFFFFF" d="M16.75,42.5C7.514,42.5,0,34.986,0,25.75S7.514,9,16.75,9S33.5,16.514,33.5,25.75S25.986,42.5,16.75,42.5z
			 M16.75,11C8.617,11,2,17.617,2,25.75S8.617,40.5,16.75,40.5S31.5,33.883,31.5,25.75S24.883,11,16.75,11z"/>
	</g>
	<g>
		<path fill="#FFFFFF" d="M31.632,57.308c-9.236,0-16.75-7.514-16.75-16.75s7.514-16.75,16.75-16.75s16.75,7.514,16.75,16.75
			S40.868,57.308,31.632,57.308z M31.632,25.808c-8.133,0-14.75,6.617-14.75,14.75s6.617,14.75,14.75,14.75s14.75-6.617,14.75-14.75
			S39.765,25.808,31.632,25.808z"/>
	</g>
	<g>
		<path fill="#FFFFFF" d="M26.723,14.652c-0.256,0-0.512-0.098-0.707-0.293c-0.391-0.391-0.391-1.023,0-1.414L36.961,2H26.723
			c-0.553,0-1-0.448-1-1s0.447-1,1-1h12.652c0.404,0,0.77,0.244,0.924,0.617c0.155,0.374,0.069,0.804-0.217,1.09L27.43,14.359
			C27.234,14.555,26.979,14.652,26.723,14.652z"/>
	</g>
	<g>
		<path fill="#FFFFFF" d="M39.375,14.652c-0.553,0-1-0.448-1-1V1c0-0.552,0.447-1,1-1s1,0.448,1,1v12.652
			C40.375,14.205,39.928,14.652,39.375,14.652z"/>
	</g>
	<g>
		<path fill="#FFFFFF" d="M41.823,29.552c-0.256,0-0.512-0.098-0.707-0.293c-0.391-0.391-0.391-1.023,0-1.414l12.677-12.677
			c0.391-0.391,1.023-0.391,1.414,0s0.391,1.023,0,1.414L42.53,29.259C42.335,29.455,42.079,29.552,41.823,29.552z"/>
	</g>
	<g>
		<path fill="#FFFFFF" d="M53.438,27.938c-0.256,0-0.512-0.098-0.707-0.293l-9.938-9.938c-0.391-0.391-0.391-1.023,0-1.414
			s1.023-0.391,1.414,0l9.938,9.938c0.391,0.391,0.391,1.023,0,1.414C53.949,27.84,53.693,27.938,53.438,27.938z"/>
	</g>
</g>
</svg>
