<?xml version="1.0" encoding="utf-8"?>
<!-- Generator: Adobe Illustrator 17.0.1, SVG Export Plug-In . SVG Version: 6.00 Build 0)  -->
<!DOCTYPE svg PUBLIC "-//W3C//DTD SVG 1.1//EN" "http://www.w3.org/Graphics/SVG/1.1/DTD/svg11.dtd">
<svg version="1.1" id="Слой_1" xmlns="http://www.w3.org/2000/svg" xmlns:xlink="http://www.w3.org/1999/xlink" x="0px" y="0px"
	 width="54.538px" height="47.83px" viewBox="0 0 54.538 47.83" enable-background="new 0 0 54.538 47.83" xml:space="preserve">
<g>
	<g>
		<g>
			<path fill="#FFFFFF" d="M15.189,28.924c-6.342,0-11.714-7.386-12.494-17.181c-0.046-0.575,0.383-1.079,0.959-1.125
				c0.574-0.044,1.079,0.383,1.125,0.959c0.693,8.698,5.168,15.257,10.411,15.257c5.148,0,9.56-6.33,10.37-14.797
				c-0.067-0.273-0.023-0.572,0.144-0.825l0.044-0.076c0.252-0.413,0.754-0.599,1.215-0.45c0.46,0.149,0.758,0.595,0.719,1.077
				C26.896,21.546,21.525,28.924,15.189,28.924z"/>
		</g>
	</g>
	<g>
		<g>
			<g>
				<path fill="#FFFFFF" d="M4.925,12.435C2.209,12.435,0,9.646,0,6.218C0,2.789,2.209,0,4.925,0C7.64,0,9.849,2.789,9.849,6.218
					C9.849,9.646,7.64,12.435,4.925,12.435z M4.925,2.09c-1.537,0-2.835,1.89-2.835,4.128s1.298,4.128,2.835,4.128
					c1.536,0,2.834-1.89,2.834-4.128S6.461,2.09,4.925,2.09z"/>
			</g>
		</g>
		<g>
			<g>
				<path fill="#FFFFFF" d="M26.263,12.435c-2.716,0-4.925-2.789-4.925-6.217C21.338,2.789,23.548,0,26.263,0
					c2.715,0,4.925,2.789,4.925,6.218C31.188,9.646,28.979,12.435,26.263,12.435z M26.263,2.09c-1.537,0-2.835,1.89-2.835,4.128
					s1.298,4.128,2.835,4.128c1.537,0,2.835-1.89,2.835-4.128S27.8,2.09,26.263,2.09z"/>
			</g>
		</g>
	</g>
	<g>
		<g>
			<g>
				<path fill="#FFFFFF" d="M25.567,47.83c-10.446,0-11.235-18.749-11.264-19.552c-0.021-0.577,0.43-1.061,1.007-1.081
					c0.579-0.018,1.061,0.43,1.081,1.007c0.006,0.176,0.726,17.537,9.185,17.537c0.04,0,0.08,0,0.12-0.001
					c4.193-0.08,5.637-4.072,7.033-7.933c1.517-4.193,2.951-8.15,7.634-7.428c0.57,0.088,0.961,0.622,0.873,1.192
					c-0.088,0.571-0.622,0.96-1.192,0.873c-2.572-0.399-3.547,1.09-5.349,6.071c-1.484,4.103-3.329,9.206-8.959,9.314
					C25.68,47.829,25.622,47.83,25.567,47.83z"/>
			</g>
		</g>
	</g>
	<g>
		<g>
			<g>
				<path fill="#FFFFFF" d="M46.702,36.495c-4.367,0-7.919-3.553-7.919-7.92c0-4.366,3.553-7.919,7.919-7.919
					c4.366,0,7.919,3.552,7.919,7.919C54.62,32.942,51.068,36.495,46.702,36.495z M46.702,22.746c-3.215,0-5.83,2.615-5.83,5.829
					c0,3.215,2.615,5.83,5.83,5.83c3.214,0,5.829-2.615,5.829-5.83C52.531,25.361,49.916,22.746,46.702,22.746z"/>
			</g>
		</g>
	</g>
	<g>
		<g>
			<circle fill="#FFFFFF" cx="46.77" cy="28.555" r="2.17"/>
		</g>
	</g>
</g>
<g>
	<g>
		<g>
			<path fill="#FFFFFF" d="M15.189,28.924c-6.342,0-11.714-7.386-12.494-17.181c-0.046-0.575,0.383-1.079,0.959-1.125
				c0.574-0.044,1.079,0.383,1.125,0.959c0.693,8.698,5.168,15.257,10.411,15.257c5.148,0,9.56-6.33,10.37-14.797
				c-0.067-0.273-0.023-0.572,0.144-0.825l0.044-0.076c0.252-0.413,0.754-0.599,1.215-0.45c0.46,0.149,0.758,0.595,0.719,1.077
				C26.896,21.546,21.525,28.924,15.189,28.924z"/>
		</g>
	</g>
	<g>
		<g>
			<g>
				<path fill="#FFFFFF" d="M4.925,12.435C2.209,12.435,0,9.646,0,6.218C0,2.789,2.209,0,4.925,0C7.64,0,9.849,2.789,9.849,6.218
					C9.849,9.646,7.64,12.435,4.925,12.435z M4.925,2.09c-1.537,0-2.835,1.89-2.835,4.128s1.298,4.128,2.835,4.128
					c1.536,0,2.834-1.89,2.834-4.128S6.461,2.09,4.925,2.09z"/>
			</g>
		</g>
		<g>
			<g>
				<path fill="#FFFFFF" d="M26.263,12.435c-2.716,0-4.925-2.789-4.925-6.217C21.338,2.789,23.548,0,26.263,0
					c2.715,0,4.925,2.789,4.925,6.218C31.188,9.646,28.979,12.435,26.263,12.435z M26.263,2.09c-1.537,0-2.835,1.89-2.835,4.128
					s1.298,4.128,2.835,4.128c1.537,0,2.835-1.89,2.835-4.128S27.8,2.09,26.263,2.09z"/>
			</g>
		</g>
	</g>
	<g>
		<g>
			<g>
				<path fill="#FFFFFF" d="M25.567,47.83c-10.446,0-11.235-18.749-11.264-19.552c-0.021-0.577,0.43-1.061,1.007-1.081
					c0.579-0.018,1.061,0.43,1.081,1.007c0.006,0.176,0.726,17.537,9.185,17.537c0.04,0,0.08,0,0.12-0.001
					c4.193-0.08,5.637-4.072,7.033-7.933c1.517-4.193,2.951-8.15,7.634-7.428c0.57,0.088,0.961,0.622,0.873,1.192
					c-0.088,0.571-0.622,0.96-1.192,0.873c-2.572-0.399-3.547,1.09-5.349,6.071c-1.484,4.103-3.329,9.206-8.959,9.314
					C25.68,47.829,25.622,47.83,25.567,47.83z"/>
			</g>
		</g>
	</g>
	<g>
		<g>
			<g>
				<path fill="#FFFFFF" d="M46.702,36.495c-4.367,0-7.919-3.553-7.919-7.92c0-4.366,3.553-7.919,7.919-7.919
					c4.366,0,7.919,3.552,7.919,7.919C54.62,32.942,51.068,36.495,46.702,36.495z M46.702,22.746c-3.215,0-5.83,2.615-5.83,5.829
					c0,3.215,2.615,5.83,5.83,5.83c3.214,0,5.829-2.615,5.829-5.83C52.531,25.361,49.916,22.746,46.702,22.746z"/>
			</g>
		</g>
	</g>
	<g>
		<g>
			<circle fill="#FFFFFF" cx="46.77" cy="28.555" r="2.17"/>
		</g>
	</g>
</g>
</svg>
