<?xml version="1.0" encoding="utf-8"?>
<!-- Generator: Adobe Illustrator 17.0.1, SVG Export Plug-In . SVG Version: 6.00 Build 0)  -->
<!DOCTYPE svg PUBLIC "-//W3C//DTD SVG 1.1//EN" "http://www.w3.org/Graphics/SVG/1.1/DTD/svg11.dtd">
<svg version="1.1" id="Слой_1" xmlns="http://www.w3.org/2000/svg" xmlns:xlink="http://www.w3.org/1999/xlink" x="0px" y="0px"
	 width="52.334px" height="52.333px" viewBox="0 0 52.334 52.333" enable-background="new 0 0 52.334 52.333" xml:space="preserve">
<g>
	<g>
		<path fill="#FFFFFF" d="M26.167,0C11.738,0,0,11.738,0,26.167s11.738,26.167,26.167,26.167s26.167-11.738,26.167-26.167
			S40.596,0,26.167,0z M26.167,50.333C12.841,50.333,2,39.492,2,26.167S12.841,2,26.167,2s24.167,10.841,24.167,24.167
			S39.493,50.333,26.167,50.333z"/>
	</g>
	<g>
		<circle fill="#FFFFFF" cx="30.75" cy="12.916" r="2.917"/>
	</g>
	<g>
		<circle fill="#FFFFFF" cx="36.584" cy="37.333" r="2.917"/>
	</g>
	<g>
		<path fill="#FFFFFF" d="M27.749,26.438h-4.441c-0.123-0.78-0.403-1.507-0.809-2.148l3.082-3.082c0.391-0.391,0.391-1.023,0-1.414
			s-1.023-0.391-1.414,0l-3.016,3.016c-0.644-0.498-1.395-0.861-2.215-1.048v-4.134c0-0.552-0.447-1-1-1s-1,0.448-1,1v4.039
			c-0.895,0.115-1.727,0.433-2.445,0.913l-2.786-2.786c-0.391-0.391-1.023-0.391-1.414,0s-0.391,1.023,0,1.414l2.76,2.76
			c-0.524,0.716-0.883,1.557-1.028,2.47H8.127c-0.553,0-1,0.448-1,1s0.447,1,1,1h3.931c0.174,0.884,0.554,1.693,1.085,2.381
			l-2.85,2.85c-0.391,0.391-0.391,1.023,0,1.414c0.195,0.195,0.451,0.293,0.707,0.293s0.512-0.098,0.707-0.293l2.916-2.916
			c0.687,0.435,1.472,0.726,2.315,0.834v4.248c0,0.552,0.447,1,1,1s1-0.448,1-1v-4.343c0.769-0.175,1.478-0.507,2.095-0.958
			l3.135,3.135c0.195,0.195,0.451,0.293,0.707,0.293s0.512-0.098,0.707-0.293c0.391-0.391,0.391-1.023,0-1.414l-3.161-3.161
			c0.413-0.616,0.708-1.316,0.856-2.069h4.473c0.553,0,1-0.448,1-1S28.302,26.438,27.749,26.438z M21.386,27.333
			c0,2.051-1.668,3.719-3.719,3.719s-3.719-1.668-3.719-3.719s1.668-3.719,3.719-3.719S21.386,25.282,21.386,27.333z"/>
	</g>
</g>
<g>
	<g>
		<path fill="#FFFFFF" d="M26.167,0C11.738,0,0,11.738,0,26.167s11.738,26.167,26.167,26.167s26.167-11.738,26.167-26.167
			S40.596,0,26.167,0z M26.167,50.333C12.841,50.333,2,39.492,2,26.167S12.841,2,26.167,2s24.167,10.841,24.167,24.167
			S39.493,50.333,26.167,50.333z"/>
	</g>
	<g>
		<circle fill="#FFFFFF" cx="30.75" cy="12.916" r="2.917"/>
	</g>
	<g>
		<circle fill="#FFFFFF" cx="36.584" cy="37.333" r="2.917"/>
	</g>
	<g>
		<path fill="#FFFFFF" d="M27.749,26.438h-4.441c-0.123-0.78-0.403-1.507-0.809-2.148l3.082-3.082c0.391-0.391,0.391-1.023,0-1.414
			s-1.023-0.391-1.414,0l-3.016,3.016c-0.644-0.498-1.395-0.861-2.215-1.048v-4.134c0-0.552-0.447-1-1-1s-1,0.448-1,1v4.039
			c-0.895,0.115-1.727,0.433-2.445,0.913l-2.786-2.786c-0.391-0.391-1.023-0.391-1.414,0s-0.391,1.023,0,1.414l2.76,2.76
			c-0.524,0.716-0.883,1.557-1.028,2.47H8.127c-0.553,0-1,0.448-1,1s0.447,1,1,1h3.931c0.174,0.884,0.554,1.693,1.085,2.381
			l-2.85,2.85c-0.391,0.391-0.391,1.023,0,1.414c0.195,0.195,0.451,0.293,0.707,0.293s0.512-0.098,0.707-0.293l2.916-2.916
			c0.687,0.435,1.472,0.726,2.315,0.834v4.248c0,0.552,0.447,1,1,1s1-0.448,1-1v-4.343c0.769-0.175,1.478-0.507,2.095-0.958
			l3.135,3.135c0.195,0.195,0.451,0.293,0.707,0.293s0.512-0.098,0.707-0.293c0.391-0.391,0.391-1.023,0-1.414l-3.161-3.161
			c0.413-0.616,0.708-1.316,0.856-2.069h4.473c0.553,0,1-0.448,1-1S28.302,26.438,27.749,26.438z M21.386,27.333
			c0,2.051-1.668,3.719-3.719,3.719s-3.719-1.668-3.719-3.719s1.668-3.719,3.719-3.719S21.386,25.282,21.386,27.333z"/>
	</g>
</g>
</svg>
